<svg width="64" height="72" viewBox="0 0 64 72" fill="none" xmlns="http://www.w3.org/2000/svg">
<g opacity="0.3">
<path opacity="0.3" d="M42.3142 18.31C40.8927 18.3087 39.5299 17.7651 38.5248 16.7987C37.5196 15.8322 36.9544 14.5218 36.953 13.155V6H12.9966C11.141 6 9.36138 6.70879 8.04926 7.97044C6.73714 9.23209 6 10.9432 6 12.7275V53.2825C6.00276 55.065 6.74111 56.7736 8.05293 58.0331C9.36474 59.2926 11.1428 60 12.9966 60H41.7552C43.6095 60 45.3879 59.2922 46.6998 58.0322C48.0117 56.7722 48.7497 55.0629 48.7518 53.28V18.31H42.3142Z" fill="#E4F1FD"/>
</g>
<path d="M48.7518 18.31H42.3142C40.8927 18.3087 39.5299 17.7651 38.5248 16.7987C37.5197 15.8322 36.9544 14.5218 36.953 13.155V6L48.7518 18.31Z" fill="#E4F1FD"/>
<path d="M53.8244 48.65H21.314C19.0078 48.65 17.1384 50.4476 17.1384 52.665V61.985C17.1384 64.2024 19.0078 66 21.314 66H53.8244C56.1305 66 58 64.2024 58 61.985V52.665C58 50.4476 56.1305 48.65 53.8244 48.65Z" fill="#E4F1FD"/>
<path d="M26.5556 59.3425V61.16H24.5978V59.3425H26.5556Z" fill="#28333A"/>
<path d="M29.4311 58.5249V61.16H27.5383V53.6425H30.6011C31.5319 53.6425 32.24 53.8641 32.7253 54.3074C32.9717 54.5398 33.1642 54.8196 33.2901 55.1286C33.416 55.4375 33.4725 55.7685 33.4559 56.1C33.4641 56.5372 33.351 56.9687 33.1283 57.35C32.9026 57.7231 32.5657 58.0227 32.1611 58.21C31.6747 58.433 31.1398 58.541 30.6011 58.5249H29.4311ZM31.5319 56.1C31.5319 55.4333 31.1523 55.1 30.3931 55.1H29.4311V57.0574H30.3931C31.1523 57.0641 31.5319 56.745 31.5319 56.1Z" fill="#28333A"/>
<path d="M41.3289 61.16H39.4387L36.2719 56.545V61.16H34.3817V53.6425H36.2719L39.4361 58.3V53.6425H41.3263L41.3289 61.16Z" fill="#28333A"/>
<path d="M48.7153 54.2499C49.3463 54.7038 49.7702 55.3748 49.8983 56.1224H47.8964C47.765 55.8546 47.5543 55.6302 47.2906 55.4774C46.9927 55.3075 46.6514 55.2209 46.3052 55.2274C46.0362 55.2167 45.768 55.2628 45.5196 55.3626C45.2711 55.4624 45.0485 55.6134 44.8674 55.8049C44.4875 56.2438 44.2943 56.8047 44.3265 57.3749C44.3265 58.0899 44.5163 58.6391 44.8959 59.0224C45.1093 59.2215 45.3636 59.3756 45.6426 59.4746C45.9216 59.5736 46.219 59.6155 46.5158 59.5974C46.9399 59.6044 47.355 59.479 47.6988 59.2399C48.0489 58.9879 48.3014 58.6306 48.4164 58.2249H46.0296V56.9174H49.9997V58.7499C49.846 59.197 49.6051 59.6119 49.29 59.9724C48.9496 60.3604 48.5255 60.6726 48.0471 60.8874C47.5048 61.1281 46.9128 61.2478 46.3156 61.2374C45.5899 61.255 44.8722 61.0877 44.2356 60.7524C43.6529 60.4383 43.1785 59.9673 42.8706 59.3974C42.541 58.7836 42.3757 58.1005 42.3896 57.4099C42.374 56.7151 42.5393 56.0276 42.8706 55.4099C43.1781 54.8413 43.6504 54.3707 44.2303 54.0549C44.8578 53.7226 45.5656 53.5561 46.2818 53.5724C47.1488 53.5315 48.0052 53.7699 48.7153 54.2499Z" fill="#28333A"/>
<path d="M20.222 22.6799H16.647V26.1174H20.222V22.6799Z" fill="#E4F1FD"/>
<path d="M23.7995 26.1176H20.2245V29.5551H23.7995V26.1176Z" fill="#E4F1FD"/>
<path d="M27.3746 22.6799H23.7996V26.1174H27.3746V22.6799Z" fill="#E4F1FD"/>
<path d="M30.9496 26.1176H27.3746V29.5551H30.9496V26.1176Z" fill="#E4F1FD"/>
<path d="M34.5298 22.6799H30.9548V26.1174H34.5298V22.6799Z" fill="#E4F1FD"/>
<path d="M38.1048 26.1176H34.5298V29.5551H38.1048V26.1176Z" fill="#E4F1FD"/>
<path d="M20.222 29.5499H16.647V32.9874H20.222V29.5499Z" fill="#E4F1FD"/>
<path d="M23.7995 32.9874H20.2245V36.4249H23.7995V32.9874Z" fill="#E4F1FD"/>
<path d="M27.3746 29.5499H23.7996V32.9874H27.3746V29.5499Z" fill="#E4F1FD"/>
<path d="M30.9496 32.9874H27.3746V36.4249H30.9496V32.9874Z" fill="#E4F1FD"/>
<path d="M34.5298 29.5499H30.9548V32.9874H34.5298V29.5499Z" fill="#E4F1FD"/>
<path d="M38.1048 32.9874H34.5298V36.4249H38.1048V32.9874Z" fill="#E4F1FD"/>
<path d="M20.222 36.4526H16.647V39.8901H20.222V36.4526Z" fill="#E4F1FD"/>
<path d="M23.7995 39.8901H20.2245V43.3276H23.7995V39.8901Z" fill="#E4F1FD"/>
<path d="M27.3746 36.4526H23.7996V39.8901H27.3746V36.4526Z" fill="#E4F1FD"/>
<path d="M30.9496 39.8901H27.3746V43.3276H30.9496V39.8901Z" fill="#E4F1FD"/>
<path d="M34.5298 36.4526H30.9548V39.8901H34.5298V36.4526Z" fill="#E4F1FD"/>
<path d="M38.1048 39.8901H34.5298V43.3276H38.1048V39.8901Z" fill="#E4F1FD"/>
</svg>
