<svg width="64" height="72" viewBox="0 0 64 72" fill="none" xmlns="http://www.w3.org/2000/svg">
<g opacity="0.3">
<path opacity="0.3" d="M42.3142 18.31C40.8927 18.3087 39.5299 17.7651 38.5248 16.7987C37.5197 15.8322 36.9544 14.5218 36.953 13.155V6H12.9966C11.141 6 9.36138 6.70878 8.04926 7.97044C6.73714 9.23209 6 10.9433 6 12.7275V53.2825C6.00276 55.065 6.74111 56.7736 8.05293 58.0331C9.36475 59.2926 11.1428 60 12.9966 60H41.7552C43.6095 60 45.3879 59.2922 46.6998 58.0322C48.0117 56.7722 48.7497 55.0629 48.7518 53.28V18.31H42.3142Z" fill="#E4F1FD"/>
</g>
<path d="M48.7518 18.31H42.3142C40.8927 18.3087 39.5299 17.7651 38.5247 16.7987C37.5196 15.8322 36.9543 14.5218 36.953 13.155V6L48.7518 18.31Z" fill="#E4F1FD"/>
<path d="M53.8244 48.65H21.314C19.0079 48.65 17.1384 50.4476 17.1384 52.665V61.985C17.1384 64.2024 19.0079 66 21.314 66H53.8244C56.1305 66 58 64.2024 58 61.985V52.665C58 50.4476 56.1305 48.65 53.8244 48.65Z" fill="#E4F1FD"/>
<path d="M26.4516 59.3424V61.1599H24.4938V59.3424H26.4516Z" fill="#28333A"/>
<path d="M36.2276 53.6951V61.1601H34.3374V56.5001L32.6552 61.1676H31.0198L29.3272 56.4901V61.1676H27.4318V53.7026H29.7432L31.8544 58.9026L33.9344 53.7026L36.2276 53.6951Z" fill="#28333A"/>
<path d="M39.423 58.5225V61.16H37.5328V53.6425H40.5956C41.5238 53.6425 42.2336 53.865 42.7198 54.3075C42.9656 54.5395 43.1576 54.819 43.283 55.1275C43.4085 55.436 43.4646 55.7666 43.4478 56.0975C43.4571 56.5345 43.3449 56.966 43.1228 57.3475C42.8958 57.7203 42.5593 58.0204 42.1556 58.21C41.6682 58.4301 41.1339 58.5371 40.5956 58.5225H39.423ZM41.5238 56.0975C41.5238 55.4408 41.1442 55.1116 40.385 55.11H39.423V57.0675H40.385C41.1442 57.0675 41.5238 56.7441 41.5238 56.0975Z" fill="#28333A"/>
<path d="M48.4684 53.5848C48.8358 53.7451 49.146 54.006 49.3602 54.3348C49.5645 54.6567 49.67 55.0277 49.6644 55.4048C49.685 55.8307 49.5456 56.2495 49.2718 56.5848C49.0222 56.8753 48.676 57.074 48.2916 57.1473V57.2023C49.3039 57.5123 49.8091 58.1181 49.8074 59.0198C49.8148 59.4238 49.7078 59.8222 49.498 60.1723C49.285 60.5149 48.971 60.789 48.5958 60.9598C48.1516 61.1578 47.6657 61.2545 47.1762 61.2423C46.2766 61.2423 45.5616 61.0298 45.0364 60.6048C44.5112 60.1798 44.2226 59.5298 44.1784 58.6573H46.0244C46.0222 58.9441 46.1243 59.2227 46.313 59.4448C46.4129 59.5451 46.5346 59.623 46.6695 59.6727C46.8043 59.7224 46.949 59.7427 47.093 59.7323C47.2116 59.7384 47.3302 59.7207 47.4412 59.6802C47.5522 59.6398 47.6533 59.5775 47.7378 59.4973C47.8179 59.4171 47.8804 59.3222 47.9215 59.2182C47.9626 59.1143 47.9815 59.0034 47.977 58.8923C47.977 58.274 47.5125 57.9656 46.5834 57.9673H46.2298V56.4898H46.573C47.405 56.5015 47.821 56.214 47.821 55.6273C47.8287 55.52 47.8135 55.4123 47.7764 55.3109C47.7393 55.2094 47.6811 55.1163 47.6052 55.0373C47.5284 54.9665 47.4373 54.9116 47.3376 54.8759C47.2379 54.8402 47.1317 54.8245 47.0254 54.8298C46.9077 54.823 46.7899 54.842 46.681 54.8853C46.572 54.9286 46.4746 54.9951 46.3962 55.0798C46.2327 55.2788 46.1414 55.5237 46.1362 55.7773H44.2876C44.2832 55.4375 44.3499 55.1004 44.4839 54.786C44.6179 54.4716 44.8165 54.1863 45.0676 53.9473C45.546 53.5223 46.2168 53.3098 47.08 53.3098C47.5584 53.2999 48.033 53.3939 48.4684 53.5848Z" fill="#28333A"/>
<path d="M37.2598 38.9799H34.4128V27.9149C34.4128 27.5443 34.2596 27.1888 33.9871 26.9267C33.7145 26.6646 33.3448 26.5174 32.9594 26.5174H25.6794C25.4885 26.5174 25.2995 26.5535 25.1232 26.6238C24.9468 26.694 24.7866 26.797 24.6517 26.9267C24.5167 27.0565 24.4096 27.2106 24.3366 27.3801C24.2636 27.5497 24.226 27.7314 24.226 27.9149V38.9799H21.366V26.9799C21.366 26.5588 21.4523 26.1418 21.62 25.7528C21.7876 25.3638 22.0334 25.0104 22.3432 24.7127C22.6529 24.4151 23.0207 24.1791 23.4254 24.0182C23.8301 23.8572 24.2638 23.7746 24.7018 23.7749H33.9318C34.8158 23.7749 35.6636 24.1126 36.2887 24.7136C36.9138 25.3147 37.265 26.1299 37.265 26.9799L37.2598 38.9799Z" fill="#E4F1FD"/>
<path d="M33.885 42.225C35.7488 42.225 37.2598 40.7721 37.2598 38.98C37.2598 37.1878 35.7488 35.735 33.885 35.735C32.0211 35.735 30.5102 37.1878 30.5102 38.98C30.5102 40.7721 32.0211 42.225 33.885 42.225Z" fill="#E4F1FD"/>
<path d="M20.8668 42.225C22.7306 42.225 24.2416 40.7721 24.2416 38.98C24.2416 37.1878 22.7306 35.735 20.8668 35.735C19.0029 35.735 17.492 37.1878 17.492 38.98C17.492 40.7721 19.0029 42.225 20.8668 42.225Z" fill="#E4F1FD"/>
</svg>
