<svg width="64" height="72" viewBox="0 0 64 72" fill="none" xmlns="http://www.w3.org/2000/svg">
<g opacity="0.3">
<path opacity="0.3" d="M42.3124 18.31C40.891 18.3087 39.5282 17.7651 38.5232 16.7987C37.5181 15.8322 36.9528 14.5218 36.9514 13.155V6H12.9989C11.1427 6 9.36244 6.70904 8.0499 7.97116C6.73737 9.23328 6 10.9451 6 12.73V53.2825C6 55.0674 6.73737 56.7792 8.0499 58.0413C9.36244 59.3034 11.1427 60.0125 12.9989 60.0125H41.7534C42.6724 60.0125 43.5824 59.8384 44.4314 59.5002C45.2803 59.1619 46.0517 58.6661 46.7014 58.0412C47.3511 57.4162 47.8664 56.6743 48.2178 55.8578C48.5693 55.0413 48.75 54.1662 48.7496 53.2825V18.3125L42.3124 18.31Z" fill="#28333A"/>
</g>
<path d="M48.7497 18.31H42.3124C40.891 18.3087 39.5282 17.7651 38.5232 16.7987C37.5181 15.8322 36.9528 14.5218 36.9514 13.155V6L48.7497 18.31Z" fill="#28333A"/>
<path d="M53.8246 48.6501H21.3158C19.0098 48.6501 17.1404 50.4477 17.1404 52.6652V61.9851C17.1404 64.2026 19.0098 66.0002 21.3158 66.0002H53.8246C56.1306 66.0002 58 64.2026 58 61.9851V52.6652C58 50.4477 56.1306 48.6501 53.8246 48.6501Z" fill="#28333A"/>
<path d="M26.7991 59.3425V61.1625H24.8413V59.3425H26.7991Z" fill="#E4F1FD"/>
<path d="M33.0854 60.14C32.8619 60.4859 32.5398 60.7627 32.1573 60.9375C31.692 61.148 31.1816 61.2499 30.6676 61.235C29.8949 61.2654 29.1334 61.0491 28.5019 60.62C28.2219 60.4189 27.993 60.1595 27.8323 59.8611C27.6715 59.5628 27.5831 59.2333 27.5737 58.8975H29.586C29.6004 59.1507 29.7126 59.3897 29.9006 59.5675C30.0878 59.7353 30.3364 59.8252 30.5922 59.8175C30.8022 59.8289 31.0085 59.7607 31.1667 59.6275C31.2361 59.5628 31.2906 59.4849 31.3269 59.3989C31.3632 59.3128 31.3803 59.2203 31.3773 59.1275C31.3801 59.039 31.3643 58.9508 31.3308 58.8684C31.2973 58.7859 31.2468 58.7107 31.1823 58.6475C31.0453 58.5135 30.8818 58.4073 30.7014 58.335C30.509 58.2533 30.2438 58.1558 29.9058 58.0425C29.4914 57.9112 29.0867 57.7533 28.6943 57.57C28.3717 57.4093 28.0949 57.1749 27.8883 56.8875C27.6484 56.5404 27.5301 56.1288 27.5503 55.7125C27.5394 55.3006 27.6631 54.8958 27.9039 54.555C28.1501 54.2207 28.49 53.9606 28.8841 53.805C29.3379 53.6284 29.8246 53.5434 30.314 53.555C31.0581 53.515 31.7935 53.7254 32.3939 54.15C32.6444 54.3457 32.8506 54.5886 32.9999 54.8638C33.1492 55.1389 33.2385 55.4405 33.2622 55.75H31.2161C31.1926 55.5285 31.0929 55.3208 30.9328 55.16C30.8513 55.0855 30.7548 55.0278 30.6493 54.9904C30.5438 54.953 30.4315 54.9367 30.3192 54.9425C30.1249 54.9329 29.9338 54.9936 29.7836 55.1125C29.713 55.176 29.6579 55.2538 29.6224 55.3403C29.5869 55.4267 29.5718 55.5197 29.5782 55.6125C29.5765 55.6955 29.5919 55.778 29.6236 55.8553C29.6553 55.9325 29.7026 56.003 29.7628 56.0625C29.8922 56.193 30.0479 56.2968 30.2204 56.3675C30.405 56.445 30.6702 56.545 31.0159 56.665C31.4374 56.7948 31.8477 56.9561 32.2431 57.1475C32.5692 57.315 32.8497 57.554 33.062 57.845C33.3041 58.1969 33.4243 58.6134 33.4052 59.035C33.4093 59.425 33.2984 59.8081 33.0854 60.14Z" fill="#E4F1FD"/>
<path d="M35.9115 53.645L37.8224 59.3L39.7359 53.645H41.7612L39.0391 61.1625H36.5953L33.8862 53.645H35.9115Z" fill="#E4F1FD"/>
<path d="M48.5703 54.25C49.2005 54.7049 49.6249 55.3752 49.7558 56.1225H47.7539C47.6232 55.8541 47.4111 55.6302 47.1455 55.48C46.8478 55.3099 46.5065 55.2233 46.1602 55.23C45.891 55.2194 45.6226 55.2659 45.3742 55.3661C45.1257 55.4663 44.9032 55.6179 44.7225 55.81C44.3421 56.2477 44.1488 56.8079 44.1817 57.3775C44.1817 58.0925 44.3715 58.6416 44.751 59.025C44.9645 59.224 45.2188 59.378 45.4977 59.477C45.7767 59.576 46.0741 59.6179 46.3708 59.6C46.795 59.6074 47.2102 59.4819 47.5537 59.2425C47.9045 58.9906 48.1579 58.6334 48.2739 58.2275H45.8846V56.92H49.8546V58.7175C49.7019 59.1645 49.4619 59.5794 49.1474 59.94C48.8054 60.3273 48.3807 60.6394 47.9021 60.855C47.3606 61.0955 46.7696 61.2152 46.1732 61.2049C45.4478 61.2232 44.7302 61.0568 44.0933 60.7225C43.5106 60.4073 43.0363 59.9355 42.7284 59.365C42.3975 58.7471 42.2322 58.0597 42.2474 57.365C42.2344 56.6744 42.3997 55.9915 42.7284 55.3775C43.0357 54.8082 43.508 54.3366 44.0881 54.02C44.7155 53.6876 45.4233 53.5212 46.1394 53.5375C47.0097 53.5073 47.8654 53.7581 48.5703 54.25Z" fill="#E4F1FD"/>
<path d="M37.9862 37.9325H37.3388C37.3354 35.4096 36.2914 32.9909 34.4359 31.2072C32.5804 29.4234 30.0649 28.4202 27.4411 28.4175C24.8176 28.4202 22.3024 29.4235 20.4473 31.2073C18.5922 32.9912 17.5488 35.4098 17.546 37.9325H16.8961C16.8995 35.2445 18.0117 32.6675 19.9886 30.767C21.9655 28.8665 24.6457 27.7977 27.4411 27.795C30.2366 27.7977 32.9167 28.8665 34.8937 30.767C36.8706 32.6675 37.9828 35.2445 37.9862 37.9325Z" fill="#28333A"/>
<path d="M42.4242 27.795H12.4581V28.4175H42.4242V27.795Z" fill="#28333A"/>
<path d="M18.2559 36.9376H16.1837V38.9301H18.2559V36.9376Z" fill="#28333A"/>
<path d="M38.6961 36.9376H36.6238V38.9301H38.6961V36.9376Z" fill="#28333A"/>
<path d="M28.476 27.0776H26.4038V29.0701H28.476V27.0776Z" fill="#28333A"/>
<path d="M12.4243 29.0726C12.9973 29.0726 13.4617 28.626 13.4617 28.0751C13.4617 27.5242 12.9973 27.0776 12.4243 27.0776C11.8514 27.0776 11.3869 27.5242 11.3869 28.0751C11.3869 28.626 11.8514 29.0726 12.4243 29.0726Z" fill="#28333A"/>
<path d="M42.3254 29.0726C42.8984 29.0726 43.3628 28.626 43.3628 28.0751C43.3628 27.5242 42.8984 27.0776 42.3254 27.0776C41.7525 27.0776 41.288 27.5242 41.288 28.0751C41.288 28.626 41.7525 29.0726 42.3254 29.0726Z" fill="#28333A"/>
</svg>
