<svg width="64" height="72" viewBox="0 0 64 72" fill="none" xmlns="http://www.w3.org/2000/svg">
<g opacity="0.3">
<path opacity="0.3" d="M42.3142 18.31C40.8927 18.3087 39.5299 17.7651 38.5248 16.7987C37.5196 15.8322 36.9544 14.5218 36.953 13.155V6H12.9966C11.1414 6 9.36221 6.70845 8.05017 7.96956C6.73812 9.23067 6.00069 10.9412 6 12.725V53.28C6.00207 55.0629 6.74011 56.7722 8.05201 58.0322C9.3639 59.2922 11.1423 60 12.9966 60H41.7526C42.6716 60.0003 43.5817 59.8266 44.4309 59.4886C45.28 59.1507 46.0517 58.6552 46.7016 58.0304C47.3516 57.4057 47.8672 56.664 48.219 55.8476C48.5707 55.0312 48.7518 54.1562 48.7518 53.2725V18.31H42.3142Z" fill="#28333A"/>
</g>
<path d="M48.7518 18.31H42.3142C40.8927 18.3087 39.5299 17.7651 38.5248 16.7987C37.5196 15.8322 36.9544 14.5218 36.953 13.155V6L48.7518 18.31Z" fill="#28333A"/>
<path d="M53.8244 48.65H21.314C19.0079 48.65 17.1384 50.4476 17.1384 52.665V61.985C17.1384 64.2024 19.0079 66 21.314 66H53.8244C56.1305 66 58 64.2024 58 61.985V52.665C58 50.4476 56.1305 48.65 53.8244 48.65Z" fill="#28333A"/>
<path d="M26.4334 59.3424V61.1599H24.4756V59.3424H26.4334Z" fill="#E4F1FD"/>
<path d="M36.2094 53.6974V61.1599H34.3192V56.4999L32.637 61.1674H31.0016L29.309 56.4899V61.1674H27.4188V53.7049H29.7302L31.8414 58.9024L33.9214 53.7049L36.2094 53.6974Z" fill="#E4F1FD"/>
<path d="M39.4048 58.5249V61.16H37.5146V53.6425H40.58C41.5082 53.6425 42.218 53.8649 42.7042 54.3074C42.9502 54.5399 43.1423 54.8198 43.2678 55.1288C43.3933 55.4377 43.4493 55.7687 43.4322 56.1C43.4412 56.537 43.329 56.9684 43.1072 57.35C42.8801 57.7221 42.5436 58.0213 42.14 58.21C41.6532 58.4321 41.1186 58.5401 40.58 58.5249H39.4048ZM41.5056 56.1C41.5056 55.4333 41.126 55.1 40.3668 55.1H39.4048V57.0574H40.3668C41.126 57.0641 41.5056 56.745 41.5056 56.1Z" fill="#E4F1FD"/>
<path d="M44.194 59.7774V58.2499L47.7664 53.5399H49.7996V58.1874H50.7408V59.7699H49.7996V61.1524H47.886V59.7699L44.194 59.7774ZM48.042 55.6524L46.118 58.1949H48.042V55.6524Z" fill="#E4F1FD"/>
<path d="M37.0544 38.9774V27.0499C37.0538 26.992 37.0477 26.9343 37.0362 26.8774C37.0334 26.8604 37.0291 26.8437 37.0232 26.8274C37.0139 26.7883 37.0017 26.7499 36.9868 26.7124C36.9801 26.6953 36.9723 26.6786 36.9634 26.6624C36.9475 26.6259 36.9284 26.5908 36.9062 26.5574L36.8802 26.5174C36.8475 26.4721 36.811 26.4295 36.771 26.3899L36.7528 26.3749C36.7174 26.3428 36.6801 26.3128 36.641 26.2849L36.5942 26.2574L36.4902 26.2024L36.4356 26.1799C36.3949 26.1648 36.3532 26.1522 36.3108 26.1424H36.2692C36.2102 26.1304 36.1501 26.1245 36.0898 26.1249H18.5762C18.3355 26.1461 18.1117 26.2529 17.9486 26.4245C17.7856 26.5961 17.6951 26.82 17.6948 27.0524C17.6948 27.0674 17.6948 27.0799 17.6948 27.0949V39.0199C17.6885 39.1734 17.7392 39.324 17.8378 39.4449C17.9231 39.5834 18.0444 39.6982 18.1899 39.778C18.3353 39.8578 18.4998 39.8998 18.6672 39.8999H36.0872C36.342 39.8986 36.586 39.8012 36.7669 39.6287C36.9478 39.4562 37.051 39.2223 37.0544 38.9774ZM18.74 28.3699V26.5599H20.2714V28.3699H18.74ZM21.3244 28.3699V26.5599H22.8558V28.3699H21.3244ZM23.9088 28.3699V26.5599H25.4402V28.3699H23.9088ZM26.4932 28.3699V26.5599H28.0246V28.3699H26.4932ZM29.0776 28.3699V26.5599H30.609V28.3699H29.0776ZM31.662 28.3699V26.5599H33.1934V28.3699H31.662ZM34.2464 28.3699V26.5599H35.7778V28.3699H34.2464ZM18.3864 37.1474V28.8599H36.3862V37.1474H18.3864ZM18.7374 39.4449V37.6349H20.2688V39.4449H18.7374ZM21.3218 39.4449V37.6349H22.8532V39.4449H21.3218ZM23.9062 39.4449V37.6349H25.4376V39.4449H23.9062ZM26.4906 39.4449V37.6349H28.022V39.4449H26.4906ZM29.075 39.4449V37.6349H30.6064V39.4449H29.075ZM31.6594 39.4449V37.6349H33.1908V39.4449H31.6594ZM34.2438 39.4449V37.6349H35.7752V39.4449H34.2438Z" fill="#28333A"/>
<path d="M29.045 32.1332L26.5568 30.7507C26.4281 30.6798 26.2823 30.6427 26.134 30.6429C25.9857 30.6432 25.84 30.6809 25.7116 30.7523C25.5831 30.8237 25.4764 30.9262 25.4021 31.0496C25.3278 31.173 25.2884 31.3131 25.288 31.4557V34.2207C25.2884 34.3633 25.3278 34.5034 25.4021 34.6268C25.4764 34.7502 25.5831 34.8527 25.7116 34.9241C25.84 34.9955 25.9857 35.0332 26.134 35.0334C26.2823 35.0337 26.4281 34.9966 26.5568 34.9257L29.045 33.5432C29.1735 33.4716 29.2801 33.3687 29.3542 33.245C29.4283 33.1213 29.4674 32.981 29.4674 32.8382C29.4674 32.6954 29.4283 32.5551 29.3542 32.4314C29.2801 32.3077 29.1735 32.2048 29.045 32.1332Z" fill="#28333A"/>
</svg>
