<svg width="64" height="72" viewBox="0 0 64 72" fill="none" xmlns="http://www.w3.org/2000/svg">
<g opacity="0.3">
<path opacity="0.3" d="M42.3142 18.31C40.8927 18.3087 39.5299 17.7651 38.5248 16.7987C37.5196 15.8322 36.9544 14.5218 36.953 13.155V6H12.9966C11.1414 6 9.36221 6.70845 8.05017 7.96956C6.73812 9.23067 6.00069 10.9412 6 12.725V53.28C6.00207 55.0629 6.74011 56.7722 8.05201 58.0322C9.3639 59.2922 11.1423 60 12.9966 60H41.7526C42.6716 60.0003 43.5817 59.8266 44.4309 59.4886C45.28 59.1507 46.0517 58.6552 46.7016 58.0304C47.3516 57.4057 47.8672 56.664 48.219 55.8476C48.5707 55.0312 48.7518 54.1562 48.7518 53.2725V18.31H42.3142Z" fill="#28333A"/>
</g>
<path d="M48.7518 18.31H42.3142C40.8927 18.3087 39.5299 17.7651 38.5248 16.7987C37.5196 15.8322 36.9544 14.5218 36.953 13.155V6L48.7518 18.31Z" fill="#28333A"/>
<path d="M53.8244 48.6501H21.314C19.0079 48.6501 17.1384 50.4477 17.1384 52.6651V61.9851C17.1384 64.2025 19.0079 66.0001 21.314 66.0001H53.8244C56.1305 66.0001 58 64.2025 58 61.9851V52.6651C58 50.4477 56.1305 48.6501 53.8244 48.6501Z" fill="#28333A"/>
<path d="M23.68 59.3425V61.16H21.7222V59.3425H23.68Z" fill="#E4F1FD"/>
<path d="M31.4332 53.6426V61.1601H29.53V58.0226H26.566V61.1601H24.6758V53.6426H26.566V56.5551H29.53V53.6426H31.4332Z" fill="#E4F1FD"/>
<path d="M38.3544 53.6426V55.0876H36.2328V61.1601H34.34V55.0876H32.2392V53.6426H38.3544Z" fill="#E4F1FD"/>
<path d="M47.9432 53.6951V61.1601H46.04V56.5001L44.3604 61.1676H42.7224L41.0324 56.4901V61.1676H39.1396V53.7026H41.451L43.5648 58.9026L45.6318 53.7026L47.9432 53.6951Z" fill="#E4F1FD"/>
<path d="M51.1386 59.7676H53.6606V61.1601H49.2406V53.6426H51.1334L51.1386 59.7676Z" fill="#E4F1FD"/>
<path d="M16.8263 34.5474C16.8235 34.4395 16.8583 34.3339 16.9252 34.2473C17.004 34.1499 17.0989 34.0655 17.206 33.9973C17.368 33.9162 17.5356 33.846 17.7078 33.7873L18.2096 33.5874L20.2168 32.7749C20.4958 32.6499 21.0158 32.4415 21.7768 32.1499L22.731 31.7749L23.0742 31.6574L23.134 31.6324C23.1502 31.6288 23.1671 31.6288 23.1834 31.6324C23.2218 31.6158 23.2635 31.6072 23.3056 31.6073C23.3861 31.6033 23.4666 31.6148 23.5425 31.6409C23.6184 31.6671 23.6881 31.7075 23.7476 31.7599C23.7972 31.806 23.8368 31.8611 23.864 31.922C23.8912 31.983 23.9056 32.0485 23.9062 32.1148V32.7499C23.9039 32.8681 23.8649 32.983 23.7944 33.0799C23.7236 33.1891 23.6164 33.2719 23.4902 33.3149L19.39 34.9273L23.4902 36.5399C23.6119 36.5877 23.7173 36.6674 23.7944 36.7698C23.8676 36.8625 23.907 36.9759 23.9062 37.0923V37.7274C23.9046 37.8627 23.8476 37.9921 23.7476 38.0874C23.6891 38.1414 23.6197 38.1833 23.5436 38.2104C23.4676 38.2375 23.3866 38.2492 23.3056 38.2449C23.2638 38.2446 23.2223 38.237 23.1834 38.2224L23.0742 38.1874L22.731 38.0698L21.7768 37.6923L20.2168 37.0698L18.2096 36.2573L17.7078 36.0574C17.544 35.9949 17.3776 35.9249 17.206 35.8449C17.0992 35.7973 17.0076 35.723 16.9409 35.6297C16.8741 35.5365 16.8345 35.4278 16.8263 35.3149V34.5474Z" fill="#28333A"/>
<path d="M25.0372 38.9251C24.8751 38.9305 24.7167 38.8779 24.5926 38.7775C24.5374 38.7364 24.4925 38.6838 24.4615 38.6236C24.4304 38.5634 24.4139 38.4972 24.4132 38.4301C24.4132 38.3351 24.707 37.6801 25.2946 36.4301L26.1526 34.6176L26.3346 34.24L27.7178 31.2876L28.2066 30.2651L28.3054 30.0301C28.3433 29.9433 28.3885 29.8597 28.4406 29.7801C28.5092 29.6718 28.6065 29.583 28.7226 29.5228C28.8386 29.4626 28.9693 29.4332 29.101 29.4376H29.712C29.8748 29.4322 30.034 29.4847 30.1592 29.5851C30.214 29.6264 30.2583 29.6792 30.2889 29.7394C30.3195 29.7995 30.3357 29.8656 30.336 29.9326C30.1279 30.5155 29.883 31.0857 29.6028 31.6401L29.4676 31.9226L28.4276 34.1101L27.0444 37.0626L26.5556 38.0876L26.4568 38.3226C26.4218 38.4165 26.3774 38.5069 26.3242 38.5925C26.2505 38.6991 26.1504 38.7862 26.0328 38.846C25.9152 38.9058 25.7839 38.9364 25.6508 38.935L25.0372 38.9251Z" fill="#28333A"/>
<path d="M31.4618 38.2499C31.3792 38.2549 31.2964 38.2435 31.2186 38.2164C31.1408 38.1893 31.0696 38.1471 31.0094 38.0924C30.9592 38.0457 30.9193 37.9898 30.8921 37.928C30.8648 37.8661 30.8508 37.7996 30.8509 37.7324V37.0974C30.8497 36.9821 30.886 36.8694 30.9549 36.7749C31.0326 36.67 31.1413 36.5899 31.2668 36.5449L35.3775 34.9324L31.2668 33.3199C31.1416 33.2668 31.0351 33.18 30.9601 33.0699C30.891 32.9744 30.853 32.8613 30.8509 32.7449V32.0999C30.851 32.0331 30.8655 31.9669 30.8937 31.9058C30.9219 31.8447 30.9631 31.7899 31.0146 31.7449C31.1373 31.6399 31.2978 31.5852 31.4618 31.5924C31.5007 31.5915 31.5392 31.6001 31.5737 31.6174C31.596 31.6136 31.6189 31.6136 31.6413 31.6174L31.6959 31.6424C31.6777 31.6424 31.7895 31.6724 32.0261 31.7599L32.9933 32.1349C32.943 32.1133 33.463 32.3216 34.5533 32.7599C35.1478 32.9949 35.829 33.2733 36.5968 33.5949C36.6462 33.6099 36.7112 33.6349 36.7944 33.6649L37.0753 33.7724C37.24 33.8289 37.3992 33.8992 37.5511 33.9824C37.6606 34.0299 37.7542 34.1058 37.8213 34.2017C37.8884 34.2975 37.9263 34.4095 37.9307 34.5249V35.2999C37.9296 35.4064 37.8931 35.5098 37.8266 35.5949C37.7547 35.6925 37.6604 35.7729 37.5511 35.8299C37.4055 35.8999 37.2287 35.9749 37.0311 36.0549L36.5111 36.2549L31.9818 38.0774C31.8518 38.1399 31.7739 38.1799 31.7505 38.1949L31.7011 38.2299L31.4618 38.2499Z" fill="#28333A"/>
</svg>
