<svg width="64" height="72" viewBox="0 0 64 72" fill="none" xmlns="http://www.w3.org/2000/svg">
<g opacity="0.3">
<path opacity="0.3" d="M42.3142 18.31C40.8928 18.3087 39.5299 17.7651 38.5248 16.7987C37.5197 15.8322 36.9544 14.5218 36.953 13.155V6H12.9966C11.141 6 9.36139 6.70879 8.04928 7.97044C6.73716 9.23209 6 10.9433 6 12.7275V53.2825C6.00276 55.065 6.74114 56.7736 8.05296 58.0331C9.36478 59.2926 11.1428 60 12.9966 60H41.7526C43.6082 60 45.3878 59.2912 46.7 58.0296C48.0121 56.7679 48.7492 55.0567 48.7492 53.2725V18.31H42.3142Z" fill="#E4F1FD"/>
</g>
<path d="M48.7492 18.31H42.3142C40.8928 18.3087 39.5299 17.7651 38.5248 16.7987C37.5197 15.8322 36.9544 14.5218 36.953 13.155V6L48.7492 18.31Z" fill="#E4F1FD"/>
<path d="M53.8245 48.65H21.314C19.0079 48.65 17.1384 50.4476 17.1384 52.665V61.985C17.1384 64.2024 19.0079 66 21.314 66H53.8245C56.1306 66 58 64.2024 58 61.985V52.665C58 50.4476 56.1306 48.65 53.8245 48.65Z" fill="#E4F1FD"/>
<path d="M27.0184 59.3425V61.16H25.0605V59.3425H27.0184Z" fill="#28333A"/>
<path d="M32.7462 61.16L31.0977 58.82L29.6833 61.16H27.5149L30.0162 57.29L27.4395 53.6425H29.6833L31.2875 55.9075L32.6681 53.6425H34.8262L32.3588 57.4275L34.9925 61.16H32.7462Z" fill="#28333A"/>
<path d="M44.5139 53.6951V61.1601H42.6211V56.5001L40.9415 61.1676H39.3034L37.6134 56.4901V61.1676H35.7206V53.7026H38.032L40.1458 58.9026L42.2128 53.7026L44.5139 53.6951Z" fill="#28333A"/>
<path d="M47.7092 59.7675H50.2312V61.16H45.8112V53.6425H47.704L47.7092 59.7675Z" fill="#28333A"/>
<path d="M16.5326 34.5475C16.529 34.4399 16.5629 34.3343 16.6288 34.2475C16.7077 34.15 16.8025 34.0656 16.9096 33.9975C17.0718 33.9167 17.2395 33.8466 17.4114 33.7875L17.9132 33.5875L19.9204 32.775C20.1995 32.65 20.7195 32.4416 21.4804 32.15L22.4346 31.775L22.7778 31.6575L22.8376 31.6325C22.8539 31.6292 22.8707 31.6292 22.887 31.6325C22.9255 31.6161 22.9672 31.6076 23.0093 31.6075C23.0898 31.6032 23.1704 31.6145 23.2463 31.6406C23.3222 31.6668 23.3919 31.7074 23.4512 31.76C23.5016 31.8055 23.5416 31.8605 23.5689 31.9216C23.5961 31.9827 23.6101 32.0485 23.6098 32.115V32.75C23.6073 32.8678 23.5694 32.9824 23.5006 33.08C23.4283 33.1888 23.3204 33.2715 23.1938 33.315L19.0936 34.9275L23.1938 36.54C23.3159 36.5884 23.4219 36.6679 23.5006 36.77C23.5721 36.8634 23.6104 36.9765 23.6098 37.0925V37.7275C23.6099 37.7946 23.5959 37.8611 23.5686 37.923C23.5414 37.9848 23.5015 38.0408 23.4512 38.0875C23.3929 38.1416 23.3234 38.1836 23.2474 38.2107C23.1713 38.2378 23.0902 38.2495 23.0093 38.245C22.9675 38.2445 22.926 38.2369 22.887 38.2225L22.7778 38.1875L22.4346 38.07L21.4882 37.7L19.9282 37.0775L17.921 36.265L17.4193 36.065C17.2581 36.0025 17.089 35.9325 16.9174 35.8525C16.8109 35.8047 16.7197 35.7303 16.6534 35.6371C16.5871 35.5439 16.5481 35.4352 16.5404 35.3225L16.5326 34.5475Z" fill="#E4F1FD"/>
<path d="M28.7813 38.925C28.6511 38.928 28.5225 38.898 28.4083 38.8378C28.2942 38.7777 28.1986 38.6896 28.1313 38.5825C28.0754 38.5053 28.0308 38.4212 27.9987 38.3325L27.9128 38.11L26.0408 34.1325L25.9056 33.8375C25.7496 33.5175 25.448 32.8825 25.0008 31.9325C24.4202 30.7241 24.1298 30.0616 24.1298 29.945C24.1299 29.8747 24.1466 29.8053 24.1786 29.7421C24.2105 29.6789 24.257 29.6234 24.3145 29.58C24.4442 29.4745 24.6101 29.4193 24.7798 29.425H25.3882C25.5164 29.4228 25.6429 29.4534 25.7548 29.5136C25.8667 29.5737 25.96 29.6613 26.0252 29.7675L26.1604 30.0175L26.2463 30.24L26.735 31.275L28.1182 34.2175L28.3002 34.5925L29.1582 36.405C29.4872 37.0551 29.7771 37.7229 30.0267 38.405C30.0262 38.4748 30.0094 38.5437 29.9774 38.6065C29.9454 38.6692 29.8991 38.7243 29.842 38.7675C29.7124 38.8731 29.5465 38.9284 29.3767 38.9225L28.7813 38.925Z" fill="#E4F1FD"/>
<path d="M31.0458 38.2501C30.9628 38.2553 30.8795 38.244 30.8012 38.2169C30.7229 38.1898 30.6513 38.1475 30.5908 38.0926C30.4908 37.9973 30.4338 37.868 30.4322 37.7326V37.0976C30.431 36.9823 30.4674 36.8695 30.5362 36.7751C30.614 36.6702 30.7226 36.5901 30.8482 36.5451L34.9614 34.9326L30.8482 33.3226C30.7233 33.27 30.6175 33.183 30.544 33.0726C30.4731 32.9777 30.4341 32.8643 30.4322 32.7476V32.1026C30.4313 32.0366 30.4447 31.9712 30.4716 31.9105C30.4984 31.8498 30.5382 31.7952 30.5882 31.7501C30.7104 31.6444 30.8712 31.5895 31.0354 31.5976C31.0734 31.597 31.1109 31.6055 31.1446 31.6226C31.1669 31.6188 31.1898 31.6188 31.2122 31.6226L31.2668 31.6476C31.2512 31.6476 31.3604 31.6776 31.597 31.7651L32.5642 32.1401C32.514 32.1184 33.034 32.3267 34.1242 32.7651C34.7188 33.0001 35.3999 33.2784 36.1678 33.6001L36.3628 33.6701L36.6436 33.7776C36.8091 33.8341 36.9691 33.9044 37.122 33.9876C37.2312 34.0355 37.3245 34.1115 37.3915 34.2073C37.4585 34.303 37.4966 34.4148 37.5016 34.5301V35.3051C37.4993 35.4113 37.4629 35.5143 37.3976 35.6001C37.325 35.6971 37.2308 35.7774 37.122 35.8351C36.9738 35.9051 36.7996 35.9801 36.602 36.0601L36.082 36.2601L31.5528 38.0826C31.4228 38.1451 31.3448 38.1851 31.3214 38.2001L31.272 38.2351L31.0458 38.2501Z" fill="#E4F1FD"/>
</svg>
