<svg width="64" height="72" viewBox="0 0 64 72" fill="none" xmlns="http://www.w3.org/2000/svg">
<g opacity="0.3">
<path opacity="0.3" d="M42.3142 18.31C40.8928 18.3087 39.5299 17.7651 38.5248 16.7987C37.5197 15.8322 36.9544 14.5218 36.953 13.155V6H12.9966C11.141 6 9.36139 6.70879 8.04928 7.97044C6.73716 9.23209 6 10.9432 6 12.7275V53.2825C6.00276 55.065 6.74114 56.7736 8.05296 58.0331C9.36478 59.2926 11.1428 60 12.9966 60H41.7526C42.6715 60.0003 43.5815 59.8265 44.4305 59.4886C45.2795 59.1506 46.051 58.6551 46.7007 58.0303C47.3505 57.4055 47.8658 56.6638 48.2173 55.8474C48.5688 55.031 48.7496 54.1561 48.7492 53.2725V18.31H42.3142Z" fill="#28333A"/>
</g>
<path d="M48.7492 18.31H42.3142C40.8927 18.3087 39.5299 17.7651 38.5247 16.7987C37.5196 15.8322 36.9543 14.5218 36.9529 13.155V6L48.7492 18.31Z" fill="#28333A"/>
<path d="M53.8245 48.65H21.314C19.0079 48.65 17.1384 50.4476 17.1384 52.665V61.985C17.1384 64.2024 19.0079 66 21.314 66H53.8245C56.1306 66 58 64.2024 58 61.985V52.665C58 50.4476 56.1306 48.65 53.8245 48.65Z" fill="#28333A"/>
<path d="M25.0866 59.3424V61.1599H23.1314V59.3424H25.0866Z" fill="#E4F1FD"/>
<path d="M34.8626 53.6974V61.1599H32.9724V56.4999L31.2902 61.1674H29.6548L27.9622 56.4899V61.1674H26.072V53.7049H28.3834L30.4946 58.9024L32.5746 53.7049L34.8626 53.6974Z" fill="#E4F1FD"/>
<path d="M41.8904 54.0199C42.4853 54.3448 42.977 54.8193 43.3126 55.3924C43.6644 55.9978 43.8438 56.6816 43.8326 57.3749C43.8461 58.0741 43.6667 58.7642 43.3126 59.3749C42.9758 59.9496 42.4823 60.425 41.8852 60.7499C41.2774 61.0837 40.5884 61.2562 39.8885 61.2499C39.1886 61.2555 38.4998 61.083 37.8917 60.7499C37.2953 60.425 36.8027 59.9495 36.4669 59.3749C36.1117 58.7646 35.9322 58.0742 35.9469 57.3749C35.9334 56.6814 36.1129 55.9969 36.4669 55.3924C36.8043 54.8197 37.2966 54.3454 37.8917 54.0199C38.4998 53.6869 39.1886 53.5144 39.8885 53.5199C40.59 53.5136 41.2808 53.6861 41.8904 54.0199ZM38.4065 55.7974C38.0217 56.237 37.8263 56.8014 37.8604 57.3749C37.8291 57.9474 38.0242 58.5101 38.4065 58.9499C38.5933 59.1452 38.8223 59.2987 39.0774 59.3998C39.3325 59.5009 39.6076 59.547 39.8833 59.5349C40.158 59.5463 40.4321 59.4998 40.6862 59.3987C40.9404 59.2977 41.1686 59.1445 41.3548 58.9499C41.7418 58.5122 41.94 57.9487 41.9087 57.3749C41.9392 56.8029 41.7431 56.2411 41.36 55.8024C41.1733 55.6071 40.9443 55.4534 40.6892 55.3523C40.434 55.2513 40.1589 55.2052 39.8833 55.2174C39.608 55.2051 39.3334 55.2506 39.0783 55.3508C38.8233 55.4509 38.594 55.6034 38.4065 55.7974Z" fill="#E4F1FD"/>
<path d="M46.3519 53.6425L48.2682 59.3L50.1818 53.6425H52.2045L49.4849 61.16H47.041L44.3318 53.6425H46.3519Z" fill="#E4F1FD"/>
<path d="M26.3268 23.4025C23.6789 23.4025 21.1394 24.4139 19.267 26.2142C17.3946 28.0146 16.3428 30.4564 16.3428 33.0025C16.3428 35.5486 17.3946 37.9903 19.267 39.7907C21.1394 41.591 23.6789 42.6025 26.3268 42.6025C28.9745 42.6011 31.5133 41.5889 33.385 39.7882C35.2568 37.9875 36.3082 35.5458 36.3082 33C36.3068 30.455 35.2548 28.0146 33.3832 26.215C31.5116 24.4154 28.9736 23.4038 26.3268 23.4025ZM26.3268 25.2725C26.8564 25.2725 27.3642 25.4748 27.7387 25.8348C28.1132 26.1949 28.3236 26.6833 28.3236 27.1925C28.3236 27.7017 28.1132 28.19 27.7387 28.5501C27.3642 28.9102 26.8564 29.1125 26.3268 29.1125C25.7972 29.1125 25.2893 28.9102 24.9148 28.5501C24.5404 28.19 24.33 27.7017 24.33 27.1925C24.33 26.6833 24.5404 26.1949 24.9148 25.8348C25.2893 25.4748 25.7972 25.2725 26.3268 25.2725ZM19.364 29.1375C19.6288 28.6966 20.0649 28.3749 20.5764 28.2432C21.0879 28.1114 21.6328 28.1804 22.0914 28.435C22.3187 28.5609 22.5179 28.7286 22.6777 28.9285C22.8376 29.1284 22.9548 29.3567 23.0229 29.6002C23.091 29.8437 23.1086 30.0978 23.0745 30.3478C23.0405 30.5978 22.9555 30.839 22.8246 31.0575C22.5592 31.4985 22.1226 31.8202 21.6108 31.952C21.0989 32.0837 20.5535 32.0146 20.0946 31.76C19.636 31.5053 19.3015 31.086 19.1645 30.5942C19.0275 30.1024 19.0993 29.5784 19.364 29.1375ZM22.0914 37.5725C21.8642 37.6984 21.6133 37.7801 21.3533 37.8128C21.0933 37.8455 20.8291 37.8287 20.5758 37.7632C20.3226 37.6977 20.0851 37.5849 19.8772 37.4312C19.6693 37.2776 19.4949 37.086 19.364 36.8675C19.0993 36.4265 19.0275 35.9025 19.1645 35.4108C19.3015 34.919 19.636 34.4996 20.0946 34.245C20.5535 33.9903 21.0989 33.9213 21.6108 34.053C22.1226 34.1847 22.5592 34.5064 22.8246 34.9475C23.0892 35.3891 23.1607 35.9137 23.0232 36.4059C22.8857 36.8982 22.5505 37.3178 22.0914 37.5725ZM26.3268 40.735C25.7972 40.735 25.2893 40.5327 24.9148 40.1726C24.5404 39.8125 24.33 39.3242 24.33 38.815C24.33 38.3058 24.5404 37.8174 24.9148 37.4573C25.2893 37.0973 25.7972 36.895 26.3268 36.895C26.5891 36.8946 26.8489 36.9441 27.0913 37.0405C27.3337 37.1368 27.554 37.2782 27.7395 37.4566C27.925 37.6349 28.072 37.8467 28.1723 38.0798C28.2725 38.3129 28.3239 38.5627 28.3236 38.815C28.3236 39.3242 28.1132 39.8125 27.7387 40.1726C27.3642 40.5327 26.8564 40.735 26.3268 40.735ZM33.2896 36.8675C33.1589 37.0862 32.9846 37.278 32.7767 37.4319C32.5688 37.5858 32.3314 37.6987 32.078 37.7642C31.8247 37.8297 31.5604 37.8465 31.3003 37.8136C31.0401 37.7807 30.7893 37.6987 30.5622 37.5725C30.1035 37.3173 29.7689 36.8976 29.6319 36.4054C29.4949 35.9131 29.5668 35.3888 29.8316 34.9475C30.0964 34.5066 30.5325 34.1849 31.044 34.0532C31.5555 33.9214 32.1004 33.9904 32.559 34.245C32.7863 34.3708 32.9855 34.5385 33.1453 34.7385C33.305 34.9385 33.4222 35.1669 33.4901 35.4105C33.5579 35.6541 33.5752 35.9082 33.5408 36.1582C33.5064 36.4082 33.421 36.6492 33.2896 36.8675ZM32.559 31.75C32.1004 32.0045 31.5555 32.0735 31.044 31.9418C30.5325 31.81 30.0964 31.4883 29.8316 31.0475C29.5669 30.6065 29.4951 30.0826 29.6321 29.5908C29.7691 29.099 30.1036 28.6796 30.5622 28.425C31.0207 28.1704 31.5657 28.1014 32.0772 28.2332C32.5886 28.3649 33.0247 28.6866 33.2896 29.1275C33.421 29.3457 33.5064 29.5868 33.5408 29.8368C33.5752 30.0868 33.5579 30.3409 33.4901 30.5845C33.4222 30.8281 33.305 31.0564 33.1453 31.2564C32.9855 31.4564 32.7863 31.6241 32.559 31.75Z" fill="#28333A"/>
<path d="M35.7206 40.6199C35.5833 40.6195 35.4465 40.6052 35.3124 40.5774C34.2022 40.3274 33.7524 39.1924 33.7524 39.1449C33.7367 39.104 33.7298 39.0606 33.7318 39.0171C33.7338 38.9737 33.7448 38.931 33.7642 38.8917C33.7835 38.8523 33.8108 38.8171 33.8445 38.788C33.8782 38.759 33.9176 38.7367 33.9604 38.7224C34.0025 38.7077 34.0473 38.7011 34.0921 38.7031C34.1369 38.7051 34.1809 38.7155 34.2214 38.7339C34.262 38.7522 34.2984 38.7781 34.3286 38.81C34.3588 38.842 34.382 38.8793 34.3971 38.9199C34.3971 38.9349 34.7326 39.7774 35.471 39.9349C36.1002 40.0674 36.914 39.6849 37.8266 38.7999C37.8585 38.7691 37.8963 38.7447 37.9381 38.7281C37.9798 38.7114 38.0245 38.7028 38.0697 38.7028C38.1148 38.7028 38.1596 38.7114 38.2013 38.7281C38.243 38.7447 38.2809 38.7691 38.3128 38.7999C38.3766 38.8617 38.4124 38.9453 38.4124 39.0324C38.4124 39.1195 38.3766 39.2031 38.3128 39.2649C37.369 40.1674 36.5032 40.6199 35.7206 40.6199Z" fill="#28333A"/>
</svg>
