<svg width="64" height="72" viewBox="0 0 64 72" fill="none" xmlns="http://www.w3.org/2000/svg">
<g opacity="0.3">
<path opacity="0.3" d="M42.3142 18.31C40.8926 18.3093 39.5293 17.766 38.5241 16.7994C37.5188 15.8328 36.9537 14.522 36.953 13.155V6H12.9966C12.0776 6 11.1676 6.17408 10.3186 6.51233C9.46953 6.85057 8.69805 7.34634 8.04833 7.97131C7.3986 8.59628 6.88333 9.33822 6.53187 10.1547C6.18041 10.9712 5.99966 11.8463 6 12.73V53.2825C5.99966 54.1662 6.18041 55.0413 6.53187 55.8578C6.88333 56.6743 7.3986 57.4162 8.04833 58.0412C8.69805 58.6661 9.46953 59.1619 10.3186 59.5002C11.1676 59.8384 12.0776 60.0125 12.9966 60.0125H41.7526C42.6716 60.0125 43.5816 59.8384 44.4307 59.5002C45.2797 59.1619 46.0511 58.6661 46.7009 58.0412C47.3506 57.4162 47.8659 56.6743 48.2174 55.8578C48.5688 55.0413 48.7496 54.1662 48.7492 53.2825V18.3125L42.3142 18.31Z" fill="#E4F1FD"/>
</g>
<path d="M48.7492 18.31H42.3142C40.8926 18.3093 39.5293 17.766 38.524 16.7994C37.5188 15.8328 36.9537 14.522 36.953 13.155V6L48.7492 18.31Z" fill="#E4F1FD"/>
<path d="M53.8244 48.6501H21.314C19.0079 48.6501 17.1384 50.4477 17.1384 52.6652V61.9851C17.1384 64.2026 19.0079 66.0002 21.314 66.0002H53.8244C56.1305 66.0002 58 64.2026 58 61.9851V52.6652C58 50.4477 56.1305 48.6501 53.8244 48.6501Z" fill="#E4F1FD"/>
<path d="M27.8972 59.3425V61.1625H25.9395V59.3425H27.8972Z" fill="#28333A"/>
<path d="M33.7082 53.645V58.78C33.7082 59.5684 33.4855 60.1742 33.04 60.5975C32.7913 60.818 32.4991 60.9881 32.1806 61.0976C31.8621 61.2071 31.5239 61.2539 31.1862 61.235C30.8164 61.2541 30.4463 61.2025 30.0973 61.0832C29.7483 60.9639 29.4274 60.7793 29.153 60.54C28.6521 60.075 28.4008 59.4084 28.399 58.54H30.2684C30.2684 59.2425 30.5466 59.5925 31.0978 59.5925C31.5788 59.5925 31.818 59.3225 31.818 58.785V53.65L33.7082 53.645Z" fill="#28333A"/>
<path d="M36.8438 58.525V61.1625H34.9536V53.645H38.0165C38.9438 53.645 39.651 53.8659 40.138 54.3075C40.3845 54.5398 40.577 54.8196 40.703 55.1285C40.8289 55.4375 40.8854 55.7686 40.8686 56.1C40.8758 56.5369 40.7637 56.9678 40.5436 57.35C40.3172 57.7227 39.9805 58.0221 39.5765 58.21C39.0897 58.4322 38.555 58.5402 38.0165 58.525H36.8438ZM38.9446 56.1C38.9446 55.4334 38.565 55.1 37.8058 55.1H36.8438V57.0575H37.8058C38.565 57.0642 38.9446 56.745 38.9446 56.1Z" fill="#28333A"/>
<path d="M47.8808 54.25C48.5103 54.7052 48.9338 55.3756 49.0638 56.1225H47.0618C46.9263 55.8609 46.7126 55.6442 46.4482 55.5C46.1504 55.3299 45.8091 55.2433 45.4628 55.25C45.194 55.2395 44.926 55.286 44.678 55.3862C44.4299 55.4865 44.2079 55.638 44.0276 55.83C43.6463 56.2673 43.4521 56.8277 43.4842 57.3975C43.4842 58.1125 43.674 58.6617 44.0536 59.045C44.2671 59.2441 44.5214 59.398 44.8004 59.497C45.0793 59.5961 45.3767 59.6379 45.6734 59.62C46.0976 59.6274 46.5129 59.502 46.8564 59.2625C47.2072 59.0107 47.4607 58.6535 47.5766 58.2475H45.1872V56.94H49.1574V58.7375C49.0057 59.185 48.7656 59.6001 48.4502 59.96C48.1086 60.3479 47.6838 60.6601 47.2048 60.875C46.6633 61.1156 46.0722 61.2352 45.4758 61.225C44.7504 61.2433 44.0328 61.0769 43.3958 60.7425C42.8131 60.4274 42.3387 59.9556 42.0308 59.385C41.7 58.7672 41.5346 58.0798 41.5498 57.385C41.5368 56.6945 41.7021 56.0116 42.0308 55.3975C42.3382 54.8282 42.8105 54.3567 43.3906 54.04C44.0183 53.7083 44.7259 53.5418 45.442 53.5575C46.3124 53.521 47.1706 53.7647 47.8808 54.25Z" fill="#28333A"/>
<path d="M33.118 42.6024H21.6338C20.5096 42.6011 19.4318 42.1711 18.6368 41.4067C17.8418 40.6423 17.3946 39.6059 17.3932 38.5249V27.4824C17.3946 26.4014 17.8418 25.365 18.6368 24.6006C19.4318 23.8363 20.5096 23.4062 21.6338 23.4049H33.118C34.242 23.4062 35.3196 23.8363 36.1141 24.6008C36.9087 25.3653 37.3553 26.4016 37.356 27.4824V38.5249C37.3553 39.6057 36.9087 40.6421 36.1141 41.4065C35.3196 42.171 34.242 42.6011 33.118 42.6024ZM21.6338 25.2074C21.0065 25.2081 20.4051 25.448 19.9615 25.8745C19.518 26.301 19.2685 26.8793 19.2678 27.4824V38.5249C19.2685 39.1281 19.518 39.7063 19.9615 40.1328C20.4051 40.5593 21.0065 40.7992 21.6338 40.7999H33.118C33.7451 40.7992 34.3462 40.5593 34.7894 40.1327C35.2325 39.7061 35.4814 39.1278 35.4814 38.5249V27.4824C35.4814 26.8795 35.2325 26.3012 34.7894 25.8746C34.3462 25.4481 33.7451 25.2081 33.118 25.2074H21.6338Z" fill="#E4F1FD"/>
<path d="M36.42 36.4251V38.5251C36.4193 39.367 36.0712 40.1742 35.4521 40.7694C34.833 41.3647 33.9935 41.6995 33.118 41.7001H21.6338C20.7581 41.7001 19.9182 41.3656 19.2989 40.7702C18.6797 40.1747 18.3318 39.3672 18.3318 38.5251V35.0001C20.17 34.6201 22.9702 34.5001 26.3684 35.8051L28.4744 33.8751L29.9096 37.3751C29.9096 37.3751 30.2944 36.0876 31.5372 36.2701C32.78 36.4526 34.7924 37.1001 35.653 36.5476C35.8849 36.419 36.1573 36.3755 36.42 36.4251Z" fill="#E4F1FD"/>
<path d="M32.3978 29.7377C33.1028 29.7377 33.6744 29.1882 33.6744 28.5102C33.6744 27.8323 33.1028 27.2827 32.3978 27.2827C31.6927 27.2827 31.1212 27.8323 31.1212 28.5102C31.1212 29.1882 31.6927 29.7377 32.3978 29.7377Z" fill="#E4F1FD"/>
</svg>
