<svg width="64" height="72" viewBox="0 0 64 72" fill="none" xmlns="http://www.w3.org/2000/svg">
<g opacity="0.3">
<path opacity="0.3" d="M42.3124 18.31C40.891 18.3087 39.5282 17.7651 38.5232 16.7987C37.5181 15.8322 36.9528 14.5218 36.9515 13.155V6H12.9989C12.0799 5.99967 11.1698 6.17344 10.3207 6.51138C9.47157 6.84933 8.70003 7.34482 8.0501 7.96956C7.40016 8.5943 6.88458 9.33604 6.53283 10.1524C6.18107 10.9688 6 11.8438 6 12.7275V53.2825C6.00276 55.0654 6.74143 56.7744 8.05375 58.034C9.36606 59.2935 11.1447 60.0007 12.9989 60H41.7534C42.6722 60 43.5819 59.826 44.4308 59.4879C45.2796 59.1498 46.0509 58.6543 46.7005 58.0296C47.3502 57.4049 47.8655 56.6632 48.2171 55.847C48.5687 55.0308 48.7497 54.156 48.7497 53.2725V18.31H42.3124Z" fill="#E4F1FD"/>
</g>
<path d="M48.7496 18.31H42.3123C40.891 18.3087 39.5282 17.7651 38.5231 16.7987C37.518 15.8322 36.9528 14.5218 36.9514 13.155V6L48.7496 18.31Z" fill="#E4F1FD"/>
<path d="M53.8247 48.65H21.3159C19.0099 48.65 17.1405 50.4476 17.1405 52.665V61.985C17.1405 64.2024 19.0099 66 21.3159 66H53.8247C56.1307 66 58 64.2024 58 61.985V52.665C58 50.4476 56.1307 48.65 53.8247 48.65Z" fill="#E4F1FD"/>
<path d="M24.5502 59.3425V61.16H22.5924V59.3425H24.5502Z" fill="#28333A"/>
<path d="M36.1611 53.6425L34.2919 61.16H31.952L30.704 56.13L29.4431 61.16H27.1032L25.2339 53.6425H27.2904L28.2965 59.0875L29.6693 53.6425H31.7492L33.1219 59.0875L34.1384 53.6425H36.1611Z" fill="#28333A"/>
<path d="M42.0004 59.7876H39.0677L38.5816 61.1601H36.5927L39.4525 53.6951H41.6312L44.4911 61.1601H42.4788L42.0004 59.7876ZM41.5116 58.4051L40.5393 55.6426L39.5565 58.4051H41.5116Z" fill="#28333A"/>
<path d="M46.688 53.6425L48.6015 59.3L50.515 53.6425H52.5377L49.8182 61.16H47.3743L44.6653 53.6425H46.688Z" fill="#28333A"/>
<path d="M37.2582 38.9799H34.3984V27.9149C34.3984 27.5443 34.2453 27.1888 33.9727 26.9267C33.7002 26.6646 33.3305 26.5174 32.945 26.5174H25.6654C25.28 26.5174 24.9103 26.6646 24.6377 26.9267C24.3652 27.1888 24.2121 27.5443 24.2121 27.9149V38.9799H21.3652V26.9799C21.3652 26.1299 21.7164 25.3147 22.3415 24.7136C22.9665 24.1126 23.8143 23.7749 24.6983 23.7749H33.9044C34.7884 23.7749 35.6361 24.1126 36.2612 24.7136C36.8863 25.3147 37.2374 26.1299 37.2374 26.9799L37.2582 38.9799Z" fill="#E4F1FD"/>
<path d="M33.8836 42.225C35.7474 42.225 37.2582 40.7721 37.2582 38.98C37.2582 37.1878 35.7474 35.735 33.8836 35.735C32.0198 35.735 30.509 37.1878 30.509 38.98C30.509 40.7721 32.0198 42.225 33.8836 42.225Z" fill="#E4F1FD"/>
<path d="M20.8687 42.225C22.7325 42.225 24.2433 40.7721 24.2433 38.98C24.2433 37.1878 22.7325 35.735 20.8687 35.735C19.0049 35.735 17.4941 37.1878 17.4941 38.98C17.4941 40.7721 19.0049 42.225 20.8687 42.225Z" fill="#E4F1FD"/>
</svg>
